<mxfile host="app.diagrams.net" agent="Mozilla/5.0 (Macintosh; Intel Mac OS X 10_15_7) AppleWebKit/537.36 (KHTML, like Gecko) Chrome/129.0.0.0 Safari/537.36" version="24.7.16">
  <diagram name="第 1 页" id="9VbonDomTFUy2wlrOYoZ">
    <mxGraphModel dx="1434" dy="687" grid="1" gridSize="10" guides="1" tooltips="1" connect="1" arrows="1" fold="1" page="1" pageScale="1" pageWidth="827" pageHeight="1169" math="0" shadow="0">
      <root>
        <mxCell id="0" />
        <mxCell id="1" parent="0" />
        <mxCell id="vZpXZTxKpS6fr0CbLd44-1" value="Mp4 File" style="rounded=0;whiteSpace=wrap;html=1;" vertex="1" parent="1">
          <mxGeometry x="170" y="230" width="120" height="60" as="geometry" />
        </mxCell>
        <mxCell id="vZpXZTxKpS6fr0CbLd44-4" value="Video Stream" style="shape=parallelogram;html=1;strokeWidth=2;perimeter=parallelogramPerimeter;whiteSpace=wrap;rounded=1;arcSize=12;size=0.23;" vertex="1" parent="1">
          <mxGeometry x="470" y="180" width="120" height="60" as="geometry" />
        </mxCell>
        <mxCell id="vZpXZTxKpS6fr0CbLd44-5" value="Audio Stream" style="shape=parallelogram;html=1;strokeWidth=2;perimeter=parallelogramPerimeter;whiteSpace=wrap;rounded=1;arcSize=12;size=0.23;" vertex="1" parent="1">
          <mxGeometry x="470" y="280" width="120" height="60" as="geometry" />
        </mxCell>
        <mxCell id="vZpXZTxKpS6fr0CbLd44-6" value="" style="endArrow=classic;html=1;rounded=0;exitX=1;exitY=0.5;exitDx=0;exitDy=0;" edge="1" parent="1" source="vZpXZTxKpS6fr0CbLd44-1">
          <mxGeometry width="50" height="50" relative="1" as="geometry">
            <mxPoint x="390" y="350" as="sourcePoint" />
            <mxPoint x="320" y="260" as="targetPoint" />
          </mxGeometry>
        </mxCell>
        <mxCell id="vZpXZTxKpS6fr0CbLd44-7" value="" style="endArrow=classic;html=1;rounded=0;exitX=1;exitY=0.5;exitDx=0;exitDy=0;entryX=0;entryY=0.5;entryDx=0;entryDy=0;" edge="1" parent="1" target="vZpXZTxKpS6fr0CbLd44-4">
          <mxGeometry width="50" height="50" relative="1" as="geometry">
            <mxPoint x="390" y="260" as="sourcePoint" />
            <mxPoint x="440" y="300" as="targetPoint" />
            <Array as="points">
              <mxPoint x="430" y="260" />
              <mxPoint x="430" y="210" />
            </Array>
          </mxGeometry>
        </mxCell>
        <mxCell id="vZpXZTxKpS6fr0CbLd44-34" value="extract" style="edgeLabel;html=1;align=center;verticalAlign=middle;resizable=0;points=[];" vertex="1" connectable="0" parent="vZpXZTxKpS6fr0CbLd44-7">
          <mxGeometry x="-0.6106" y="-1" relative="1" as="geometry">
            <mxPoint x="-8" y="-16" as="offset" />
          </mxGeometry>
        </mxCell>
        <mxCell id="vZpXZTxKpS6fr0CbLd44-8" value="" style="endArrow=classic;html=1;rounded=0;entryX=0;entryY=0.5;entryDx=0;entryDy=0;" edge="1" parent="1" target="vZpXZTxKpS6fr0CbLd44-5">
          <mxGeometry width="50" height="50" relative="1" as="geometry">
            <mxPoint x="430" y="260" as="sourcePoint" />
            <mxPoint x="440" y="300" as="targetPoint" />
            <Array as="points">
              <mxPoint x="430" y="310" />
            </Array>
          </mxGeometry>
        </mxCell>
        <mxCell id="vZpXZTxKpS6fr0CbLd44-18" value="" style="edgeStyle=orthogonalEdgeStyle;rounded=0;orthogonalLoop=1;jettySize=auto;html=1;" edge="1" parent="1" source="vZpXZTxKpS6fr0CbLd44-9" target="vZpXZTxKpS6fr0CbLd44-14">
          <mxGeometry relative="1" as="geometry" />
        </mxCell>
        <mxCell id="vZpXZTxKpS6fr0CbLd44-9" value="Video Decoder" style="rounded=1;whiteSpace=wrap;html=1;absoluteArcSize=1;arcSize=14;strokeWidth=2;" vertex="1" parent="1">
          <mxGeometry x="620" y="175" width="90" height="70" as="geometry" />
        </mxCell>
        <mxCell id="vZpXZTxKpS6fr0CbLd44-19" value="" style="edgeStyle=orthogonalEdgeStyle;rounded=0;orthogonalLoop=1;jettySize=auto;html=1;" edge="1" parent="1" source="vZpXZTxKpS6fr0CbLd44-11" target="vZpXZTxKpS6fr0CbLd44-15">
          <mxGeometry relative="1" as="geometry" />
        </mxCell>
        <mxCell id="vZpXZTxKpS6fr0CbLd44-11" value="Audio Decoder" style="rounded=1;whiteSpace=wrap;html=1;absoluteArcSize=1;arcSize=14;strokeWidth=2;" vertex="1" parent="1">
          <mxGeometry x="620" y="275" width="90" height="70" as="geometry" />
        </mxCell>
        <mxCell id="vZpXZTxKpS6fr0CbLd44-12" value="" style="endArrow=classic;html=1;rounded=0;exitX=1;exitY=0.5;exitDx=0;exitDy=0;entryX=0;entryY=0.5;entryDx=0;entryDy=0;" edge="1" parent="1" source="vZpXZTxKpS6fr0CbLd44-4" target="vZpXZTxKpS6fr0CbLd44-9">
          <mxGeometry width="50" height="50" relative="1" as="geometry">
            <mxPoint x="500" y="350" as="sourcePoint" />
            <mxPoint x="550" y="300" as="targetPoint" />
          </mxGeometry>
        </mxCell>
        <mxCell id="vZpXZTxKpS6fr0CbLd44-13" value="" style="endArrow=classic;html=1;rounded=0;exitX=1;exitY=0.5;exitDx=0;exitDy=0;entryX=0;entryY=0.5;entryDx=0;entryDy=0;" edge="1" parent="1">
          <mxGeometry width="50" height="50" relative="1" as="geometry">
            <mxPoint x="576" y="310" as="sourcePoint" />
            <mxPoint x="620" y="310" as="targetPoint" />
          </mxGeometry>
        </mxCell>
        <mxCell id="vZpXZTxKpS6fr0CbLd44-30" style="edgeStyle=orthogonalEdgeStyle;rounded=0;orthogonalLoop=1;jettySize=auto;html=1;entryX=0;entryY=0.5;entryDx=0;entryDy=0;" edge="1" parent="1" source="vZpXZTxKpS6fr0CbLd44-14" target="vZpXZTxKpS6fr0CbLd44-21">
          <mxGeometry relative="1" as="geometry" />
        </mxCell>
        <mxCell id="vZpXZTxKpS6fr0CbLd44-14" value="Stitch Process" style="rounded=1;whiteSpace=wrap;html=1;absoluteArcSize=1;arcSize=14;strokeWidth=2;" vertex="1" parent="1">
          <mxGeometry x="750" y="180" width="130" height="60" as="geometry" />
        </mxCell>
        <mxCell id="vZpXZTxKpS6fr0CbLd44-31" style="edgeStyle=orthogonalEdgeStyle;rounded=0;orthogonalLoop=1;jettySize=auto;html=1;entryX=0;entryY=0.5;entryDx=0;entryDy=0;" edge="1" parent="1" source="vZpXZTxKpS6fr0CbLd44-15" target="vZpXZTxKpS6fr0CbLd44-22">
          <mxGeometry relative="1" as="geometry" />
        </mxCell>
        <mxCell id="vZpXZTxKpS6fr0CbLd44-15" value="Spatical Process" style="rounded=1;whiteSpace=wrap;html=1;absoluteArcSize=1;arcSize=14;strokeWidth=2;" vertex="1" parent="1">
          <mxGeometry x="750" y="280" width="130" height="60" as="geometry" />
        </mxCell>
        <mxCell id="vZpXZTxKpS6fr0CbLd44-21" value="Frame Render" style="rounded=1;whiteSpace=wrap;html=1;absoluteArcSize=1;arcSize=14;strokeWidth=2;" vertex="1" parent="1">
          <mxGeometry x="930" y="122.5" width="140" height="50" as="geometry" />
        </mxCell>
        <mxCell id="vZpXZTxKpS6fr0CbLd44-22" value="PCM Play" style="rounded=1;whiteSpace=wrap;html=1;absoluteArcSize=1;arcSize=14;strokeWidth=2;" vertex="1" parent="1">
          <mxGeometry x="930" y="347.5" width="140" height="50" as="geometry" />
        </mxCell>
        <mxCell id="vZpXZTxKpS6fr0CbLd44-27" value="" style="edgeStyle=orthogonalEdgeStyle;rounded=0;orthogonalLoop=1;jettySize=auto;html=1;" edge="1" parent="1" source="vZpXZTxKpS6fr0CbLd44-26" target="vZpXZTxKpS6fr0CbLd44-21">
          <mxGeometry relative="1" as="geometry" />
        </mxCell>
        <mxCell id="vZpXZTxKpS6fr0CbLd44-28" value="" style="edgeStyle=orthogonalEdgeStyle;rounded=0;orthogonalLoop=1;jettySize=auto;html=1;" edge="1" parent="1" source="vZpXZTxKpS6fr0CbLd44-26" target="vZpXZTxKpS6fr0CbLd44-22">
          <mxGeometry relative="1" as="geometry" />
        </mxCell>
        <mxCell id="vZpXZTxKpS6fr0CbLd44-26" value="Media Sync" style="shape=hexagon;perimeter=hexagonPerimeter2;whiteSpace=wrap;html=1;fixedSize=1;direction=south;size=50;" vertex="1" parent="1">
          <mxGeometry x="965" y="197.5" width="70" height="120" as="geometry" />
        </mxCell>
        <mxCell id="vZpXZTxKpS6fr0CbLd44-39" style="edgeStyle=orthogonalEdgeStyle;rounded=0;orthogonalLoop=1;jettySize=auto;html=1;entryX=0.5;entryY=0;entryDx=0;entryDy=0;" edge="1" parent="1" source="vZpXZTxKpS6fr0CbLd44-33" target="vZpXZTxKpS6fr0CbLd44-14">
          <mxGeometry relative="1" as="geometry" />
        </mxCell>
        <mxCell id="vZpXZTxKpS6fr0CbLd44-33" value="StitchInit" style="rounded=1;whiteSpace=wrap;html=1;absoluteArcSize=1;arcSize=14;strokeWidth=2;" vertex="1" parent="1">
          <mxGeometry x="320" y="90" width="70" height="70" as="geometry" />
        </mxCell>
        <mxCell id="vZpXZTxKpS6fr0CbLd44-36" value="" style="edgeStyle=orthogonalEdgeStyle;rounded=0;orthogonalLoop=1;jettySize=auto;html=1;" edge="1" parent="1" source="vZpXZTxKpS6fr0CbLd44-35" target="vZpXZTxKpS6fr0CbLd44-33">
          <mxGeometry relative="1" as="geometry" />
        </mxCell>
        <mxCell id="vZpXZTxKpS6fr0CbLd44-42" style="edgeStyle=orthogonalEdgeStyle;rounded=0;orthogonalLoop=1;jettySize=auto;html=1;entryX=0.5;entryY=0;entryDx=0;entryDy=0;dashed=1;" edge="1" parent="1" source="vZpXZTxKpS6fr0CbLd44-35" target="vZpXZTxKpS6fr0CbLd44-40">
          <mxGeometry relative="1" as="geometry" />
        </mxCell>
        <mxCell id="vZpXZTxKpS6fr0CbLd44-35" value="Extractor" style="rounded=0;whiteSpace=wrap;html=1;" vertex="1" parent="1">
          <mxGeometry x="320" y="230" width="70" height="60" as="geometry" />
        </mxCell>
        <mxCell id="vZpXZTxKpS6fr0CbLd44-43" style="edgeStyle=orthogonalEdgeStyle;rounded=0;orthogonalLoop=1;jettySize=auto;html=1;entryX=0.5;entryY=1;entryDx=0;entryDy=0;dashed=1;" edge="1" parent="1" source="vZpXZTxKpS6fr0CbLd44-40" target="vZpXZTxKpS6fr0CbLd44-15">
          <mxGeometry relative="1" as="geometry" />
        </mxCell>
        <mxCell id="vZpXZTxKpS6fr0CbLd44-40" value="SpaticalInit" style="rounded=1;whiteSpace=wrap;html=1;absoluteArcSize=1;arcSize=14;strokeWidth=2;" vertex="1" parent="1">
          <mxGeometry x="320" y="360" width="70" height="70" as="geometry" />
        </mxCell>
      </root>
    </mxGraphModel>
  </diagram>
</mxfile>
